<?xml version="1.0" encoding="utf-8"?>
<!-- Generator: Adobe Illustrator 27.3.1, SVG Export Plug-In . SVG Version: 6.00 Build 0)  -->
<svg version="1.1" id="Layer_1" xmlns="http://www.w3.org/2000/svg" xmlns:xlink="http://www.w3.org/1999/xlink" x="0px" y="0px"
	 viewBox="0 0 64 64" style="enable-background:new 0 0 64 64;" xml:space="preserve">
<style type="text/css">
	.st0{fill:none;stroke:#FBB040;stroke-width:2;stroke-miterlimit:10;}
	.st1{fill:#FFFFFF;stroke:#FBB040;stroke-width:2;stroke-miterlimit:10;}
</style>
<g>
	<g>
		<path class="st0" d="M29.36,50.99c0.89,6.25-13.02,6.44-14.2-3.01c-5.72,1.67-9.67-4.09-6.91-9.18C4.94,36.44,5,29.54,8.45,27.48
			c-2.64-2.94,0.56-11.16,6.95-9.69c-1.74-6.6,7.5-11.99,13.99-6.72L29.36,50.99z"/>
		<path class="st0" d="M15.21,16.32c0.48,2.93,2.95,5.2,5.77,5.73"/>
		<path class="st0" d="M20.98,14.12c-0.65,4.38,6.39,6.22,8.31,3.38"/>
		<path class="st0" d="M17.46,20.58c-0.01,1.54-1.98,3.5-3.1,3.96"/>
		<path class="st0" d="M13.1,29.53c1.74,0.92,1.77,3.55,3.65,4.13c1.97,0.61,3.04-1.66,3.83-3.23c1.21-2.4,3-3.38,5.6-2.95
			c0.85,0.14,2.33,0.76,2.82,1.02"/>
		<path class="st0" d="M11.13,29.39c1.35,1.74,3.51-0.83,2.11-2.35"/>
		<path class="st0" d="M29.43,38.49c-1.85-1.92-4.73,0.25-5.35,2.33c-0.73,2.45,1.49,4.45,0.71,6.84c-0.47,1.45-1.57,2.09-2.96,1.85
			"/>
		<path class="st0" d="M15.21,49.21c-2.17-5.92,8.59-4.26,3.94-13.21"/>
		<path class="st0" d="M8.17,39.08c0.77-1.32,2.61-1.41,3.95-1.33c1.21,0.08,2.58,1.03,3.09,1.18"/>
	</g>
	<g>
		<path class="st0" d="M57.37,36l0.2-6.46l-3.76-0.13c-0.23-1.34-0.58-2.64-1.05-3.87l3.44-1.97l-2.98-5.67l-3.66,2.09
			c-0.79-0.97-1.67-1.85-2.62-2.65l2.19-3.86L43.8,10.2l-2.26,3.98c-1.09-0.41-2.24-0.73-3.42-0.93V8.58h-3.06v46.84h3.06v-2.89
			c1.17-0.2,2.3-0.51,3.38-0.92l1.32,2.59l5.47-3.03l-1.38-2.72c1.02-0.85,1.96-1.81,2.8-2.86l2.58,1.72l3.33-5.45l-2.78-1.85
			c0.48-1.31,0.84-2.7,1.05-4.13L57.37,36z"/>
		<path class="st1" d="M35.06,17.87v4.46c5.11,0.02,9.24,4.34,9.24,9.67c0,5.33-4.13,9.66-9.24,9.67v4.46
			c7.46-0.02,13.51-6.34,13.51-14.13C48.58,24.21,42.53,17.89,35.06,17.87z"/>
	</g>
</g>
</svg>
