<?xml version="1.0" encoding="utf-8"?>
<!-- Generator: Adobe Illustrator 27.3.1, SVG Export Plug-In . SVG Version: 6.00 Build 0)  -->
<svg version="1.1" id="Layer_1" xmlns="http://www.w3.org/2000/svg" xmlns:xlink="http://www.w3.org/1999/xlink" x="0px" y="0px"
	 viewBox="0 0 64 64" style="enable-background:new 0 0 64 64;" xml:space="preserve">
<style type="text/css">
	.st0{fill:#FBB040;}
</style>
<g>
	<g>
		<path class="st0" d="M54.21,12.97c-1.63,0.22-3.34,0.33-5.07,0.33c-1.72,0-3.47-0.12-5.21-0.33C38.54,12.3,34.71,11.14,32,9.92
			v44.45c6.68-3.82,14.39-10.02,18.54-19.56C53.78,27.35,54.34,18.97,54.21,12.97z"/>
		<path class="st0" d="M32,62.54c6.83-3.35,19.13-10.88,25.22-24.89c6.83-15.69,3.47-34.13,3.47-34.13s-0.19,0.12-0.57,0.31
			c-0.17,0.09-0.36,0.18-0.6,0.29C59.36,4.19,59.19,4.26,59,4.33c-0.18,0.08-0.38,0.15-0.6,0.23c-0.43,0.16-0.92,0.32-1.47,0.48
			c-0.27,0.08-0.56,0.15-0.87,0.23c-0.3,0.07-0.61,0.14-0.95,0.21c-0.47,0.11-0.97,0.2-1.5,0.28c-1.32,0.2-2.82,0.32-4.49,0.32
			c-1.33,0-2.76-0.08-4.29-0.27C34.66,4.56,32,1.46,32,1.46s-2.66,3.1-12.84,4.36c-1.54,0.19-2.97,0.27-4.3,0.27
			c-1.63,0-3.1-0.13-4.41-0.32C9.93,5.69,9.43,5.6,8.96,5.51C8.91,5.49,8.85,5.49,8.79,5.47C8.49,5.41,8.2,5.34,7.92,5.28
			C7.62,5.2,7.33,5.13,7.06,5.04C6.52,4.88,6.03,4.73,5.59,4.57c-0.22-0.08-0.42-0.15-0.6-0.23C4.84,4.28,4.68,4.21,4.56,4.15
			c-0.11-0.05-0.21-0.1-0.3-0.14c-0.11-0.05-0.22-0.1-0.31-0.14C3.52,3.66,3.31,3.53,3.31,3.53s-3.35,18.43,3.47,34.13
			C12.88,51.66,25.17,59.19,32,62.54z M6.62,8.95c0.03,0.01,0.06,0.02,0.09,0.02l0.2,0.05l0.05,0.02L7,9.05
			c0.28,0.06,0.58,0.14,0.89,0.2c0.06,0.02,0.13,0.03,0.18,0.04L8.1,9.29l0.09,0.02C8.82,9.43,9.34,9.52,9.9,9.61
			c1.66,0.23,3.29,0.35,4.96,0.35c1.58,0,3.19-0.11,4.78-0.31C25.84,8.89,29.69,7.47,32,6.21c2.31,1.26,6.16,2.69,12.36,3.45
			c1.59,0.2,3.21,0.31,4.78,0.31c1.75,0,3.45-0.13,5.08-0.37c0.56-0.09,1.14-0.19,1.7-0.31c0.38-0.08,0.75-0.16,1.09-0.24l0.04-0.01
			l0.04-0.02l0.18-0.05c0.04-0.01,0.08-0.02,0.12-0.03c0.48,6.17,0.53,17.33-3.76,27.18C48.76,47.3,39.51,54.2,32,58.18
			C24.49,54.2,15.24,47.3,10.37,36.12C6.11,26.32,6.15,15.12,6.62,8.95z"/>
	</g>
</g>
</svg>
